<?xml version="1.0" encoding="UTF-8" standalone="no"?>
<!DOCTYPE svg PUBLIC "-//W3C//DTD SVG 1.1//EN" "http://www.w3.org/Graphics/SVG/1.1/DTD/svg11.dtd">
<svg width="100%" height="100%" viewBox="0 0 200 50" version="1.1" xmlns="http://www.w3.org/2000/svg" xmlns:xlink="http://www.w3.org/1999/xlink" xml:space="preserve" xmlns:serif="http://www.serif.com/" style="fill-rule:evenodd;clip-rule:evenodd;stroke-linejoin:round;stroke-miterlimit:2;">
    <g transform="matrix(1.0497,0,0,1.0497,0,5.67574e-15)">
        <g id="path98" transform="matrix(0.159584,0,0,0.159584,-20.8556,-6.71593)">
            <path d="M261.964,122.954C276.625,76.113 320.393,42.084 372.047,42.084C423.702,42.084 467.469,76.113 482.131,122.954L482.132,122.957C482.507,124.157 482.863,125.365 483.2,126.58C499.562,176.175 568.117,156.986 568.117,156.986L613.407,273.978L441.41,340.563L412.333,265.454L412.21,265.499L396.115,223.559C397.338,223.09 398.541,222.587 399.724,222.052C405.024,219.472 409.635,216.621 413.641,213.575C424.565,204.935 432.58,193.064 436.501,179.683C442.118,157.99 435.206,138.194 435.01,137.641C425.473,112.102 400.739,93.714 372.047,93.714C343.355,93.714 318.621,112.102 309.085,137.641C308.889,138.192 301.976,157.99 307.594,179.683C311.515,193.064 319.53,204.935 330.454,213.575C334.46,216.621 339.071,219.472 344.371,222.052C345.554,222.587 346.757,223.09 347.98,223.559L347.927,223.696L331.884,265.499L331.762,265.454L302.685,340.563L130.687,273.978L175.978,156.986C175.978,156.986 244.533,176.175 260.894,126.58C261.231,125.365 261.588,124.157 261.963,122.957L261.964,122.954Z" style="fill:rgb(197,45,127);fill-rule:nonzero;"/>
        </g>
        <g id="g111" transform="matrix(0.175458,0,0,0.175458,54.3919,-84.8274)">
            <g id="text101">
                <path id="path1003" d="M187.427,566.353C187.427,571.937 188.336,576.158 190.152,579.017C192.002,581.876 194.995,583.305 199.132,583.305C203.236,583.305 206.179,581.892 207.962,579.067C209.778,576.208 210.686,571.97 210.686,566.353C210.686,560.77 209.778,556.582 207.962,553.79C206.145,550.999 203.169,549.603 199.031,549.603C194.928,549.603 191.968,550.999 190.152,553.79C188.336,556.548 187.427,560.736 187.427,566.353ZM226.427,566.353C226.427,575.535 224.006,582.717 219.162,587.896C214.319,593.076 207.575,595.666 198.931,595.666C193.515,595.666 188.739,594.489 184.602,592.134C180.465,589.746 177.286,586.332 175.067,581.892C172.847,577.453 171.737,572.273 171.737,566.353C171.737,557.137 174.142,549.973 178.951,544.86C183.761,539.748 190.522,537.191 199.233,537.191C204.649,537.191 209.425,538.369 213.562,540.723C217.699,543.078 220.877,546.458 223.097,550.864C225.317,555.27 226.427,560.433 226.427,566.353Z" style="fill:white;"/>
                <path id="path1005" d="M270.119,595.666C263.493,595.666 258.296,593.261 254.529,588.451L253.722,588.451C254.26,593.16 254.529,595.885 254.529,596.625L254.529,619.48L239.141,619.48L239.141,538.251L251.654,538.251L253.823,545.567L254.529,545.567C258.128,539.983 263.459,537.191 270.523,537.191C277.183,537.191 282.396,539.765 286.163,544.911C289.93,550.057 291.814,557.204 291.814,566.353C291.814,572.374 290.922,577.604 289.14,582.044C287.391,586.484 284.885,589.864 281.622,592.185C278.36,594.506 274.525,595.666 270.119,595.666ZM265.578,549.502C261.778,549.502 259.003,550.679 257.254,553.034C255.505,555.354 254.597,559.206 254.529,564.587L254.529,566.252C254.529,572.306 255.421,576.645 257.203,579.269C259.02,581.892 261.879,583.204 265.78,583.204C272.675,583.204 276.123,577.52 276.123,566.151C276.123,560.601 275.265,556.448 273.55,553.689C271.868,550.898 269.211,549.502 265.578,549.502Z" style="fill:white;"/>
                <path id="path1007" d="M327.887,548.14C324.625,548.14 322.069,549.182 320.219,551.268C318.369,553.319 317.309,556.246 317.04,560.046L338.634,560.046C338.567,556.246 337.574,553.319 335.657,551.268C333.74,549.182 331.15,548.14 327.887,548.14ZM330.057,595.666C320.975,595.666 313.878,593.16 308.766,588.149C303.653,583.137 301.097,576.04 301.097,566.858C301.097,557.406 303.452,550.107 308.16,544.961C312.903,539.781 319.445,537.191 327.787,537.191C335.758,537.191 341.964,539.462 346.404,544.003C350.843,548.543 353.063,554.816 353.063,562.821L353.063,570.288L316.687,570.288C316.855,574.661 318.15,578.075 320.572,580.53C322.994,582.986 326.391,584.213 330.763,584.213C334.16,584.213 337.373,583.86 340.4,583.154C343.427,582.447 346.589,581.321 349.885,579.773L349.885,591.68C347.194,593.026 344.318,594.018 341.257,594.657C338.197,595.33 334.463,595.666 330.057,595.666Z" style="fill:white;"/>
                <path id="path1009" d="M417.643,594.657L402.255,594.657L402.255,561.711C402.255,557.642 401.531,554.598 400.085,552.58C398.639,550.528 396.335,549.502 393.173,549.502C388.868,549.502 385.757,550.948 383.839,553.841C381.922,556.7 380.964,561.459 380.964,568.119L380.964,594.657L365.576,594.657L365.576,538.251L377.331,538.251L379.4,545.466L380.257,545.466C381.973,542.741 384.327,540.69 387.321,539.31C390.348,537.898 393.779,537.191 397.613,537.191C404.172,537.191 409.15,538.974 412.547,542.539C415.944,546.071 417.643,551.184 417.643,557.877L417.643,594.657Z" style="fill:white;"/>
                <path id="path1011" d="M461.89,547.837L448.267,547.837L448.267,594.657L436.361,594.657L436.361,547.837L427.178,547.837L427.178,542.287L436.361,538.655L436.361,535.022C436.361,528.43 437.908,523.552 441.002,520.391C444.097,517.195 448.822,515.598 455.179,515.598C459.35,515.598 463.454,516.287 467.49,517.666L464.362,526.647C461.435,525.705 458.644,525.234 455.987,525.234C453.296,525.234 451.328,526.075 450.084,527.757C448.873,529.405 448.267,531.894 448.267,535.224L448.267,538.856L461.89,538.856L461.89,547.837ZM483.231,594.657L471.375,594.657L471.375,516.153L483.231,516.153L483.231,594.657Z" style="fill:white;"/>
                <path id="path1013" d="M524.602,595.666C515.924,595.666 509.13,593.143 504.219,588.098C499.342,583.019 496.904,576.04 496.904,567.16C496.904,558.045 499.174,550.881 503.715,545.668C508.255,540.454 514.495,537.847 522.433,537.847C529.799,537.847 535.618,540.084 539.889,544.558C544.161,549.031 546.297,555.186 546.297,563.023L546.297,569.431L509.113,569.431C509.281,574.846 510.744,579.017 513.503,581.943C516.261,584.836 520.145,586.282 525.157,586.282C528.453,586.282 531.514,585.979 534.339,585.374C537.198,584.735 540.259,583.692 543.522,582.246L543.522,591.882C540.629,593.261 537.703,594.237 534.743,594.808C531.783,595.38 528.403,595.666 524.602,595.666ZM522.433,546.828C518.666,546.828 515.638,548.022 513.351,550.41C511.098,552.798 509.752,556.279 509.315,560.854L534.642,560.854C534.575,556.246 533.465,552.765 531.312,550.41C529.16,548.022 526.2,546.828 522.433,546.828Z" style="fill:white;"/>
                <path id="path1015" d="M572.179,566.151L553.461,538.856L566.982,538.856L579.696,558.382L592.511,538.856L605.932,538.856L587.163,566.151L606.89,594.657L593.47,594.657L579.696,573.77L565.973,594.657L552.553,594.657L572.179,566.151Z" style="fill:white;"/>
                <path id="path1017" d="M656.031,594.657L654.366,587.341L653.761,587.341C652.113,589.931 649.758,591.966 646.697,593.446C643.67,594.926 640.206,595.666 636.304,595.666C629.544,595.666 624.498,593.984 621.168,590.621C617.839,587.257 616.174,582.162 616.174,575.334L616.174,538.856L628.131,538.856L628.131,573.265C628.131,577.537 629.005,580.749 630.754,582.902C632.503,585.021 635.245,586.08 638.978,586.08C643.956,586.08 647.606,584.6 649.926,581.64C652.281,578.647 653.458,573.652 653.458,566.656L653.458,538.856L665.365,538.856L665.365,594.657L656.031,594.657Z" style="fill:white;"/>
                <path id="path1019" d="M710.57,537.847C712.958,537.847 714.926,538.016 716.473,538.352L715.313,549.401C713.631,548.997 711.882,548.796 710.066,548.796C705.323,548.796 701.472,550.343 698.512,553.437C695.586,556.532 694.123,560.551 694.123,565.495L694.123,594.657L682.266,594.657L682.266,538.856L691.55,538.856L693.114,548.695L693.719,548.695C695.569,545.365 697.974,542.724 700.934,540.774C703.927,538.823 707.14,537.847 710.57,537.847Z" style="fill:white;"/>
                <path id="path1021" d="M751.185,595.666C742.507,595.666 735.713,593.143 730.802,588.098C725.925,583.019 723.486,576.04 723.486,567.16C723.486,558.045 725.757,550.881 730.297,545.668C734.838,540.454 741.077,537.847 749.015,537.847C756.381,537.847 762.2,540.084 766.472,544.558C770.743,549.031 772.879,555.186 772.879,563.023L772.879,569.431L735.696,569.431C735.864,574.846 737.327,579.017 740.085,581.943C742.843,584.836 746.728,586.282 751.74,586.282C755.036,586.282 758.097,585.979 760.922,585.374C763.781,584.735 766.842,583.692 770.104,582.246L770.104,591.882C767.212,593.261 764.286,594.237 761.326,594.808C758.366,595.38 754.985,595.666 751.185,595.666ZM749.015,546.828C745.248,546.828 742.221,548.022 739.934,550.41C737.68,552.798 736.335,556.279 735.898,560.854L761.225,560.854C761.157,556.246 760.048,552.765 757.895,550.41C755.742,548.022 752.782,546.828 749.015,546.828Z" style="fill:white;"/>
            </g>
            <g id="text101-6">
                <path id="path1024" d="M244.205,698.119L244.205,662.147C244.205,656.799 243.162,652.897 241.077,650.442C238.991,647.986 235.796,646.759 231.491,646.759C225.874,646.759 221.72,648.306 219.029,651.4C216.338,654.495 214.993,659.355 214.993,665.981L214.993,698.119L209.897,698.119L209.897,660.633C209.897,651.383 205.659,646.759 197.183,646.759C191.432,646.759 187.244,648.44 184.62,651.804C181.997,655.134 180.685,660.482 180.685,667.848L180.685,698.119L175.69,698.119L175.69,643.277L179.827,643.277L180.887,650.795L181.19,650.795C182.703,648.07 184.856,645.968 187.648,644.488C190.439,642.975 193.517,642.218 196.88,642.218C205.525,642.218 211.074,645.464 213.53,651.955L213.732,651.955C215.514,648.827 217.902,646.422 220.896,644.74C223.923,643.059 227.354,642.218 231.188,642.218C237.175,642.218 241.665,643.815 244.659,647.011C247.653,650.206 249.149,655.285 249.149,662.247L249.149,698.119L244.205,698.119Z" style="fill:white;"/>
                <path id="path1026" d="M271.903,698.119L266.909,698.119L266.909,643.277L271.903,643.277L271.903,698.119ZM266.202,628.041C266.202,624.812 267.262,623.197 269.381,623.197C270.423,623.197 271.231,623.618 271.803,624.458C272.408,625.299 272.711,626.493 272.711,628.041C272.711,629.554 272.408,630.748 271.803,631.623C271.231,632.497 270.423,632.935 269.381,632.935C267.262,632.935 266.202,631.303 266.202,628.041Z" style="fill:white;"/>
                <path id="path1028" d="M312.165,699.128C304.328,699.128 298.189,696.656 293.749,691.712C289.31,686.767 287.09,679.872 287.09,671.026C287.09,661.945 289.394,654.881 294.002,649.836C298.61,644.757 304.916,642.218 312.921,642.218C317.664,642.218 322.205,643.042 326.544,644.69L325.181,649.13C320.439,647.549 316.319,646.759 312.82,646.759C306.093,646.759 300.998,648.844 297.533,653.015C294.069,657.152 292.337,663.122 292.337,670.925C292.337,678.325 294.069,684.127 297.533,688.331C300.998,692.502 305.841,694.588 312.064,694.588C317.042,694.588 321.666,693.696 325.938,691.914L325.938,696.555C322.44,698.271 317.849,699.128 312.165,699.128Z" style="fill:white;"/>
                <path id="path1030" d="M360.952,642.218C363.273,642.218 365.762,642.453 368.419,642.924L367.461,647.717C365.173,647.145 362.802,646.859 360.347,646.859C355.672,646.859 351.837,648.844 348.844,652.813C345.85,656.782 344.353,661.793 344.353,667.848L344.353,698.119L339.359,698.119L339.359,643.277L343.597,643.277L344.101,653.166L344.454,653.166C346.708,649.13 349.113,646.304 351.669,644.69C354.225,643.042 357.32,642.218 360.952,642.218Z" style="fill:white;"/>
                <path id="path1032" d="M424.926,670.623C424.926,679.57 422.757,686.566 418.418,691.611C414.079,696.623 408.092,699.128 400.457,699.128C395.647,699.128 391.409,697.968 387.743,695.647C384.076,693.326 381.268,689.996 379.317,685.657C377.366,681.319 376.391,676.307 376.391,670.623C376.391,661.676 378.56,654.713 382.899,649.735C387.238,644.724 393.191,642.218 400.759,642.218C408.294,642.218 414.197,644.757 418.468,649.836C422.773,654.881 424.926,661.81 424.926,670.623ZM381.638,670.623C381.638,678.157 383.286,684.043 386.582,688.281C389.912,692.485 394.604,694.588 400.658,694.588C406.713,694.588 411.388,692.485 414.684,688.281C418.014,684.043 419.679,678.157 419.679,670.623C419.679,663.055 417.997,657.185 414.634,653.015C411.304,648.844 406.612,646.759 400.558,646.759C394.503,646.759 389.828,648.844 386.532,653.015C383.269,657.152 381.638,663.021 381.638,670.623Z" style="fill:white;"/>
                <path id="path1034" d="M474.117,683.841C474.117,688.752 472.251,692.536 468.517,695.193C464.784,697.817 459.486,699.128 452.625,699.128C445.292,699.128 439.473,698.002 435.168,695.748L435.168,690.35C440.684,693.108 446.503,694.487 452.625,694.487C458.04,694.487 462.143,693.595 464.935,691.813C467.76,689.996 469.173,687.591 469.173,684.598C469.173,681.84 468.046,679.519 465.793,677.636C463.573,675.752 459.907,673.902 454.794,672.086C449.312,670.101 445.46,668.403 443.24,666.99C441.021,665.544 439.339,663.929 438.195,662.147C437.085,660.33 436.53,658.127 436.53,655.537C436.53,651.434 438.246,648.188 441.676,645.8C445.141,643.412 449.967,642.218 456.156,642.218C462.076,642.218 467.693,643.328 473.007,645.548L471.141,650.088C465.759,647.868 460.764,646.759 456.156,646.759C451.683,646.759 448.134,647.498 445.511,648.978C442.887,650.458 441.575,652.51 441.575,655.134C441.575,657.993 442.585,660.28 444.603,661.995C446.654,663.711 450.64,665.628 456.56,667.747C461.504,669.529 465.103,671.144 467.357,672.59C469.61,674.003 471.292,675.617 472.402,677.434C473.546,679.25 474.117,681.386 474.117,683.841Z" style="fill:white;"/>
                <path id="path1036" d="M510.141,699.128C502.304,699.128 496.165,696.656 491.725,691.712C487.286,686.767 485.066,679.872 485.066,671.026C485.066,661.945 487.37,654.881 491.978,649.836C496.586,644.757 502.892,642.218 510.897,642.218C515.64,642.218 520.181,643.042 524.52,644.69L523.157,649.13C518.415,647.549 514.294,646.759 510.796,646.759C504.069,646.759 498.974,648.844 495.509,653.015C492.045,657.152 490.313,663.122 490.313,670.925C490.313,678.325 492.045,684.127 495.509,688.331C498.974,692.502 503.817,694.588 510.04,694.588C515.018,694.588 519.642,693.696 523.914,691.914L523.914,696.555C520.416,698.271 515.825,699.128 510.141,699.128Z" style="fill:white;"/>
                <path id="path1038" d="M582.691,670.623C582.691,679.57 580.522,686.566 576.183,691.611C571.844,696.623 565.857,699.128 558.222,699.128C553.412,699.128 549.174,697.968 545.508,695.647C541.842,693.326 539.033,689.996 537.082,685.657C535.131,681.319 534.156,676.307 534.156,670.623C534.156,661.676 536.325,654.713 540.664,649.735C545.003,644.724 550.957,642.218 558.525,642.218C566.059,642.218 571.962,644.757 576.233,649.836C580.539,654.881 582.691,661.81 582.691,670.623ZM539.403,670.623C539.403,678.157 541.051,684.043 544.347,688.281C547.677,692.485 552.369,694.588 558.424,694.588C564.478,694.588 569.153,692.485 572.45,688.281C575.779,684.043 577.444,678.157 577.444,670.623C577.444,663.055 575.763,657.185 572.399,653.015C569.069,648.844 564.377,646.759 558.323,646.759C552.269,646.759 547.593,648.844 544.297,653.015C541.034,657.152 539.403,663.021 539.403,670.623Z" style="fill:white;"/>
                <path id="path1040" d="M621.338,699.128C612.896,699.128 606.74,695.967 602.872,689.643L602.519,689.643L602.671,693.881C602.805,696.37 602.872,699.095 602.872,702.055L602.872,722.942L597.878,722.942L597.878,643.277L602.116,643.277L603.074,651.097L603.377,651.097C607.144,645.178 613.165,642.218 621.439,642.218C628.839,642.218 634.473,644.656 638.341,649.533C642.242,654.377 644.193,661.44 644.193,670.724C644.193,679.738 642.141,686.734 638.038,691.712C633.968,696.656 628.401,699.128 621.338,699.128ZM621.237,694.688C626.854,694.688 631.193,692.603 634.254,688.432C637.348,684.262 638.896,678.426 638.896,670.925C638.896,654.814 633.077,646.759 621.439,646.759C615.048,646.759 610.356,648.524 607.363,652.056C604.369,655.554 602.872,661.272 602.872,669.21L602.872,670.824C602.872,679.401 604.302,685.523 607.161,689.189C610.054,692.855 614.746,694.688 621.237,694.688Z" style="fill:white;"/>
                <path id="path1042" d="M681.528,699.128C673.557,699.128 667.334,696.673 662.861,691.762C658.421,686.852 656.201,679.973 656.201,671.127C656.201,662.382 658.353,655.386 662.659,650.139C666.964,644.858 672.766,642.218 680.065,642.218C686.523,642.218 691.619,644.471 695.352,648.978C699.086,653.486 700.952,659.607 700.952,667.343L700.952,671.379L661.448,671.379C661.515,678.914 663.264,684.665 666.695,688.634C670.159,692.603 675.104,694.588 681.528,694.588C684.656,694.588 687.397,694.369 689.752,693.932C692.14,693.494 695.15,692.553 698.783,691.106L698.783,695.647C695.688,696.992 692.829,697.901 690.206,698.372C687.582,698.876 684.69,699.128 681.528,699.128ZM680.065,646.658C674.784,646.658 670.546,648.407 667.351,651.905C664.156,655.369 662.289,660.381 661.751,666.94L695.655,666.94C695.655,660.583 694.276,655.621 691.518,652.056C688.76,648.457 684.942,646.658 680.065,646.658Z" style="fill:white;"/>
            </g>
        </g>
    </g>
</svg>
