<?xml version="1.0" encoding="UTF-8" standalone="no"?>
<!DOCTYPE svg PUBLIC "-//W3C//DTD SVG 1.1//EN" "http://www.w3.org/Graphics/SVG/1.1/DTD/svg11.dtd">
<svg width="100%" height="100%" viewBox="0 0 155 155" version="1.1" xmlns="http://www.w3.org/2000/svg" xmlns:xlink="http://www.w3.org/1999/xlink" xml:space="preserve" xmlns:serif="http://www.serif.com/" style="fill-rule:evenodd;clip-rule:evenodd;stroke-linejoin:round;stroke-miterlimit:2;">
    <g transform="matrix(7.05504,0,0,7.05504,0,-288.503)">
        <path d="M11.079,40.893C5.064,40.893 0,45.77 0,51.786L0,63.066L11.077,63.056C17.092,63.056 21.97,57.991 21.97,51.977C21.97,45.962 17.087,40.893 11.079,40.893Z" style="fill-rule:nonzero;"/>
        <path d="M11.186,45.11C8.807,45.111 6.604,46.364 5.387,48.408C4.17,50.452 4.118,52.986 5.25,55.078L4.028,59.008L8.416,58.017C10.928,59.149 13.876,58.64 15.864,56.732C17.852,54.825 18.481,51.9 17.454,49.343C16.426,46.787 13.948,45.111 11.192,45.11L11.186,45.11Z" style="fill:rgb(255,249,174);fill-rule:nonzero;"/>
        <path d="M16.543,47.754C18.415,50.208 18.383,53.621 16.465,56.04C14.548,58.459 11.233,59.269 8.416,58.006L4.028,59.01L8.495,58.483C11.455,60.217 15.246,59.454 17.305,56.709C19.364,53.964 19.036,50.111 16.543,47.754Z" style="fill:rgb(0,174,239);fill-rule:nonzero;"/>
        <path d="M16.088,54.757C14.433,57.363 11.221,58.515 8.287,57.553L4.028,59.01L8.416,58.017C11.54,59.428 15.226,58.273 16.986,55.331C18.746,52.388 18.021,48.594 15.3,46.509C17.418,48.754 17.742,52.151 16.088,54.757Z" style="fill:rgb(0,169,79);fill-rule:nonzero;"/>
        <path d="M5.654,55.227C4.431,52.28 5.439,48.879 8.07,47.073C10.701,45.268 14.237,45.551 16.547,47.752C14.407,44.944 10.465,44.258 7.503,46.179C4.541,48.1 3.559,51.979 5.25,55.078L4.028,59.008L5.654,55.227Z" style="fill:rgb(241,93,34);fill-rule:nonzero;"/>
        <path d="M5.25,55.078C3.733,52.276 4.382,48.794 6.807,46.726C9.232,44.658 12.772,44.568 15.3,46.509C12.875,43.956 8.896,43.694 6.158,45.908C3.421,48.122 2.844,52.068 4.834,54.973L4.03,59.01L5.25,55.078Z" style="fill:rgb(208,36,43);fill-rule:nonzero;"/>
    </g>
</svg>
