<?xml version="1.0" encoding="UTF-8" standalone="no"?>
<!DOCTYPE svg PUBLIC "-//W3C//DTD SVG 1.1//EN" "http://www.w3.org/Graphics/SVG/1.1/DTD/svg11.dtd">
<svg width="100%" height="100%" viewBox="0 0 66 50" version="1.1" xmlns="http://www.w3.org/2000/svg" xmlns:xlink="http://www.w3.org/1999/xlink" xml:space="preserve" xmlns:serif="http://www.serif.com/" style="fill-rule:evenodd;clip-rule:evenodd;stroke-linejoin:round;stroke-miterlimit:2;">
    <g id="path85" transform="matrix(0.21863,0,0,0.21863,-88.7821,-15.6512)">
        <path d="M497.136,115.601C505.115,90.108 528.936,71.587 557.049,71.587C585.161,71.587 608.982,90.108 616.962,115.601L616.962,115.603C617.166,116.256 617.36,116.913 617.543,117.575C626.448,144.567 663.759,134.123 663.759,134.123L688.408,197.796L594.799,234.034L578.974,193.156L578.907,193.181L570.148,170.355C570.813,170.1 571.468,169.826 572.112,169.535C574.996,168.131 577.506,166.579 579.686,164.921C585.631,160.219 589.993,153.758 592.128,146.475C595.185,134.67 591.423,123.895 591.316,123.594C586.126,109.695 572.664,99.687 557.049,99.687C541.433,99.687 527.972,109.695 522.782,123.594C522.675,123.895 518.913,134.669 521.97,146.475C524.105,153.758 528.466,160.219 534.412,164.921C536.592,166.579 539.102,168.131 541.986,169.535C542.63,169.826 543.285,170.1 543.95,170.355L543.922,170.43L535.19,193.181L535.123,193.156L519.299,234.034L425.689,197.796L450.338,134.123C450.338,134.123 487.649,144.567 496.554,117.575C496.737,116.913 496.932,116.256 497.136,115.603L497.136,115.601Z" style="fill:rgb(197,45,127);fill-rule:nonzero;"/>
    </g>
    <g id="text88" transform="matrix(0.21863,0,0,0.21863,-88.7821,-15.6512)">
        <path id="path2" d="M414.019,273.595C414.019,276.418 414.478,278.553 415.396,279.998C416.332,281.444 417.845,282.167 419.937,282.167C422.012,282.167 423.5,281.452 424.402,280.024C425.32,278.578 425.779,276.435 425.779,273.595C425.779,270.772 425.32,268.654 424.402,267.242C423.483,265.831 421.978,265.125 419.886,265.125C417.811,265.125 416.315,265.831 415.396,267.242C414.478,268.637 414.019,270.755 414.019,273.595ZM433.739,273.595C433.739,278.238 432.515,281.869 430.065,284.488C427.616,287.108 424.206,288.417 419.835,288.417C417.097,288.417 414.682,287.822 412.59,286.631C410.498,285.424 408.891,283.697 407.768,281.452C406.646,279.207 406.084,276.588 406.084,273.595C406.084,268.935 407.3,265.312 409.733,262.727C412.165,260.142 415.583,258.849 419.988,258.849C422.727,258.849 425.142,259.444 427.234,260.635C429.326,261.825 430.933,263.535 432.055,265.763C433.178,267.991 433.739,270.601 433.739,273.595ZM455.832,288.417C452.482,288.417 449.854,287.201 447.949,284.769L447.541,284.769C447.813,287.15 447.949,288.528 447.949,288.902L447.949,300.459L440.168,300.459L440.168,259.385L446.495,259.385L447.592,263.084L447.949,263.084C449.769,260.261 452.465,258.849 456.036,258.849C459.404,258.849 462.04,260.15 463.945,262.752C465.85,265.355 466.802,268.969 466.802,273.595C466.802,276.639 466.352,279.284 465.45,281.529C464.566,283.774 463.299,285.483 461.649,286.657C459.999,287.83 458.06,288.417 455.832,288.417ZM453.536,265.074C451.614,265.074 450.211,265.669 449.327,266.86C448.442,268.033 447.983,269.981 447.949,272.702L447.949,273.544C447.949,276.605 448.4,278.799 449.301,280.126C450.22,281.452 451.665,282.116 453.638,282.116C457.125,282.116 458.868,279.241 458.868,273.493C458.868,270.687 458.434,268.586 457.567,267.191C456.717,265.78 455.373,265.074 453.536,265.074ZM485.043,264.385C483.393,264.385 482.101,264.912 481.165,265.967C480.23,267.004 479.694,268.484 479.558,270.406L490.477,270.406C490.443,268.484 489.941,267.004 488.972,265.967C488.003,264.912 486.693,264.385 485.043,264.385ZM486.14,288.417C481.548,288.417 477.959,287.15 475.374,284.616C472.789,282.082 471.496,278.493 471.496,273.85C471.496,269.071 472.687,265.38 475.068,262.778C477.466,260.159 480.774,258.849 484.992,258.849C489.023,258.849 492.161,259.997 494.406,262.293C496.651,264.589 497.774,267.761 497.774,271.809L497.774,275.585L479.38,275.585C479.465,277.796 480.119,279.522 481.344,280.764C482.569,282.005 484.286,282.626 486.497,282.626C488.215,282.626 489.839,282.447 491.37,282.09C492.901,281.733 494.5,281.163 496.166,280.381L496.166,286.402C494.806,287.082 493.352,287.584 491.804,287.907C490.256,288.247 488.368,288.417 486.14,288.417ZM530.429,287.907L522.647,287.907L522.647,271.248C522.647,269.19 522.282,267.651 521.55,266.63C520.819,265.593 519.654,265.074 518.055,265.074C515.878,265.074 514.305,265.805 513.336,267.268C512.366,268.714 511.882,271.12 511.882,274.488L511.882,287.907L504.1,287.907L504.1,259.385L510.045,259.385L511.091,263.033L511.524,263.033C512.392,261.655 513.582,260.618 515.096,259.921C516.627,259.206 518.362,258.849 520.3,258.849C523.617,258.849 526.134,259.75 527.852,261.553C529.57,263.339 530.429,265.924 530.429,269.309L530.429,287.907Z" style="fill:rgb(42,42,42);"/>
        <path id="path3" d="M552.802,264.232L545.914,264.232L545.914,287.907L539.893,287.907L539.893,264.232L535.25,264.232L535.25,261.426L539.893,259.589L539.893,257.752C539.893,254.419 540.676,251.952 542.241,250.354C543.805,248.738 546.195,247.93 549.409,247.93C551.518,247.93 553.593,248.279 555.634,248.976L554.052,253.517C552.573,253.041 551.161,252.803 549.817,252.803C548.457,252.803 547.462,253.228 546.833,254.078C546.22,254.912 545.914,256.17 545.914,257.854L545.914,259.691L552.802,259.691L552.802,264.232ZM563.594,287.907L557.599,287.907L557.599,248.211L563.594,248.211L563.594,287.907ZM584.513,288.417C580.125,288.417 576.69,287.142 574.207,284.59C571.741,282.022 570.507,278.493 570.507,274.003C570.507,269.394 571.656,265.771 573.952,263.135C576.248,260.499 579.403,259.181 583.416,259.181C587.141,259.181 590.083,260.312 592.243,262.574C594.403,264.836 595.483,267.948 595.483,271.911L595.483,275.151L576.681,275.151C576.766,277.889 577.506,279.998 578.901,281.478C580.295,282.941 582.26,283.672 584.794,283.672C586.461,283.672 588.009,283.519 589.437,283.213C590.883,282.89 592.431,282.362 594.08,281.631L594.08,286.504C592.618,287.201 591.138,287.694 589.641,287.983C588.145,288.273 586.435,288.417 584.513,288.417ZM583.416,263.722C581.512,263.722 579.981,264.326 578.824,265.533C577.685,266.741 577.004,268.501 576.783,270.814L589.59,270.814C589.556,268.484 588.995,266.724 587.906,265.533C586.818,264.326 585.321,263.722 583.416,263.722ZM607.525,273.493L598.06,259.691L604.897,259.691L611.326,269.564L617.806,259.691L624.592,259.691L615.102,273.493L625.077,287.907L618.291,287.907L611.326,277.345L604.387,287.907L597.601,287.907L607.525,273.493ZM649.925,287.907L649.084,284.208L648.777,284.208C647.944,285.517 646.754,286.546 645.206,287.295C643.675,288.043 641.923,288.417 639.95,288.417C636.532,288.417 633.981,287.567 632.297,285.866C630.613,284.165 629.771,281.589 629.771,278.136L629.771,259.691L635.817,259.691L635.817,277.09C635.817,279.25 636.26,280.874 637.144,281.963C638.028,283.034 639.415,283.57 641.303,283.57C643.82,283.57 645.665,282.822 646.839,281.325C648.029,279.811 648.624,277.286 648.624,273.748L648.624,259.691L654.645,259.691L654.645,287.907L649.925,287.907ZM677.504,259.181C678.711,259.181 679.706,259.266 680.488,259.436L679.902,265.023C679.051,264.819 678.167,264.717 677.249,264.717C674.85,264.717 672.903,265.499 671.406,267.064C669.927,268.629 669.187,270.661 669.187,273.161L669.187,287.907L663.192,287.907L663.192,259.691L667.886,259.691L668.677,264.666L668.983,264.666C669.918,262.982 671.134,261.647 672.631,260.66C674.145,259.674 675.769,259.181 677.504,259.181ZM696.995,288.417C692.607,288.417 689.171,287.142 686.688,284.59C684.222,282.022 682.989,278.493 682.989,274.003C682.989,269.394 684.137,265.771 686.433,263.135C688.729,260.499 691.884,259.181 695.898,259.181C699.622,259.181 702.565,260.312 704.725,262.574C706.885,264.836 707.965,267.948 707.965,271.911L707.965,275.151L689.163,275.151C689.248,277.889 689.987,279.998 691.382,281.478C692.777,282.941 694.741,283.672 697.275,283.672C698.942,283.672 700.49,283.519 701.918,283.213C703.364,282.89 704.912,282.362 706.562,281.631L706.562,286.504C705.099,287.201 703.619,287.694 702.122,287.983C700.626,288.273 698.916,288.417 696.995,288.417ZM695.898,263.722C693.993,263.722 692.462,264.326 691.305,265.533C690.166,266.741 689.486,268.501 689.265,270.814L702.071,270.814C702.037,268.484 701.476,266.724 700.388,265.533C699.299,264.326 697.802,263.722 695.898,263.722Z" style="fill:rgb(42,42,42);"/>
    </g>
</svg>
